<svg xmlns="http://www.w3.org/2000/svg" viewBox="0 0 800 280" width="800" height="280">
  <defs>
    <linearGradient id="g" x1="0" y1="0" x2="0" y2="1">
      <stop offset="0%" stop-color="#3b82f6" stop-opacity="0.25"/>
      <stop offset="100%" stop-color="#3b82f6" stop-opacity="0.02"/>
    </linearGradient>
    <style>
      text { font-family: -apple-system, BlinkMacSystemFont, 'Segoe UI', Roboto, Helvetica, sans-serif; }
      text.title { font-size: 13px; font-weight: 600; }
      text.axis  { font-size: 10px; }
      text.badge { font-size: 11px; }
    </style>
  </defs>

  <rect width="800" height="280" fill="#ffffff"/>

  <!-- 网格线 -->
  <line x1="56.0" y1="236.0" x2="756" y2="236.0" stroke="#f1f5f9" stroke-width="1"/>
  <line x1="56.0" y1="165.3" x2="756" y2="165.3" stroke="#f1f5f9" stroke-width="1"/>
  <line x1="56.0" y1="94.7" x2="756" y2="94.7" stroke="#f1f5f9" stroke-width="1"/>
  <line x1="56.0" y1="24.0" x2="756" y2="24.0" stroke="#f1f5f9" stroke-width="1"/>

  <!-- Y 轴标签 -->
  <text x="46" y="236.0" text-anchor="end" dominant-baseline="central" fill="#94a3b8" class="axis">0</text>
  <text x="46" y="165.3" text-anchor="end" dominant-baseline="central" fill="#94a3b8" class="axis">340</text>
  <text x="46" y="94.7" text-anchor="end" dominant-baseline="central" fill="#94a3b8" class="axis">680</text>
  <text x="46" y="24.0" text-anchor="end" dominant-baseline="central" fill="#94a3b8" class="axis">1020</text>

  <!-- 面积填充 -->
  <path d="M56.0,235.8L67.8,232.9L71.7,225.6L75.7,222.1L79.6,219.8L83.5,217.9L87.5,216.5L91.4,214.6L95.3,212.3L99.3,209.4L103.2,203.2L107.1,200.7L111.1,199.0L115.0,198.2L118.9,197.1L122.9,196.1L126.8,194.8L130.7,194.0L134.7,192.8L138.6,192.6L142.5,191.9L146.4,191.5L150.4,190.9L154.3,190.1L158.2,189.9L162.2,189.0L166.1,188.6L170.0,188.4L174.0,187.8L177.9,186.7L181.8,185.9L185.8,185.5L189.7,184.5L193.6,183.4L197.6,182.6L205.4,181.8L209.4,181.5L213.3,180.7L217.2,179.7L221.2,178.2L225.1,177.2L229.0,176.3L233.0,175.9L236.9,174.5L240.8,173.0L244.8,171.4L248.7,169.7L252.6,169.3L256.6,168.0L260.5,167.4L264.4,166.4L268.4,165.3L272.3,164.1L276.2,163.7L280.2,162.6L284.1,162.0L288.0,161.0L292.0,159.9L295.9,159.3L299.8,157.6L303.8,156.0L307.7,154.9L311.6,153.7L315.6,153.1L319.5,152.4L323.4,151.6L327.3,150.2L331.3,149.5L335.2,148.1L339.1,147.7L343.1,147.0L347.0,146.0L350.9,145.2L354.9,143.1L358.8,141.8L362.7,140.2L366.7,139.4L370.6,137.9L374.5,136.9L378.5,136.2L382.4,135.0L386.3,133.5L390.3,132.7L394.2,132.1L398.1,130.4L402.1,128.8L406.0,127.7L409.9,126.5L413.9,125.4L417.8,124.2L421.7,123.1L425.7,121.9L429.6,120.6L433.5,119.0L437.5,118.6L441.4,117.9L445.3,117.5L449.3,116.7L453.2,116.5L457.1,115.2L461.1,114.6L465.0,114.0L468.9,113.0L472.9,112.1L476.8,111.3L480.7,109.4L484.7,108.2L488.6,107.6L492.5,106.7L496.4,106.5L500.4,105.9L504.3,104.9L508.2,104.2L512.2,104.0L516.1,103.4L520.0,102.8L524.0,101.1L527.9,98.2L531.8,97.0L535.8,93.4L539.7,91.3L543.6,90.3L547.6,89.5L551.5,88.2L555.4,87.4L559.4,86.4L563.3,84.7L567.2,83.0L571.2,81.6L575.1,81.2L579.0,80.5L583.0,80.1L586.9,79.3L590.8,78.7L594.8,77.6L598.7,77.2L602.6,76.6L610.5,76.2L614.4,76.0L618.4,74.5L622.3,74.3L626.2,73.5L630.2,72.0L638.0,71.8L642.0,71.0L645.9,69.7L649.8,68.1L653.8,67.4L657.7,66.6L661.6,66.0L665.6,64.7L669.5,64.3L673.4,64.1L677.3,63.7L681.3,62.9L685.2,61.8L689.1,61.0L693.1,60.8L697.0,60.6L700.9,59.1L704.9,57.9L708.8,57.5L712.7,56.8L716.7,56.2L720.6,56.0L724.5,55.2L728.5,54.3L732.4,54.1L736.3,53.7L740.3,53.5L744.2,52.5L752.1,52.3L756.0,52.3 L756.0,236 L56.0,236 Z" fill="url(#g)" stroke="none"/>

  <!-- 折线 -->
  <path d="M56.0,235.8L67.8,232.9L71.7,225.6L75.7,222.1L79.6,219.8L83.5,217.9L87.5,216.5L91.4,214.6L95.3,212.3L99.3,209.4L103.2,203.2L107.1,200.7L111.1,199.0L115.0,198.2L118.9,197.1L122.9,196.1L126.8,194.8L130.7,194.0L134.7,192.8L138.6,192.6L142.5,191.9L146.4,191.5L150.4,190.9L154.3,190.1L158.2,189.9L162.2,189.0L166.1,188.6L170.0,188.4L174.0,187.8L177.9,186.7L181.8,185.9L185.8,185.5L189.7,184.5L193.6,183.4L197.6,182.6L205.4,181.8L209.4,181.5L213.3,180.7L217.2,179.7L221.2,178.2L225.1,177.2L229.0,176.3L233.0,175.9L236.9,174.5L240.8,173.0L244.8,171.4L248.7,169.7L252.6,169.3L256.6,168.0L260.5,167.4L264.4,166.4L268.4,165.3L272.3,164.1L276.2,163.7L280.2,162.6L284.1,162.0L288.0,161.0L292.0,159.9L295.9,159.3L299.8,157.6L303.8,156.0L307.7,154.9L311.6,153.7L315.6,153.1L319.5,152.4L323.4,151.6L327.3,150.2L331.3,149.5L335.2,148.1L339.1,147.7L343.1,147.0L347.0,146.0L350.9,145.2L354.9,143.1L358.8,141.8L362.7,140.2L366.7,139.4L370.6,137.9L374.5,136.9L378.5,136.2L382.4,135.0L386.3,133.5L390.3,132.7L394.2,132.1L398.1,130.4L402.1,128.8L406.0,127.7L409.9,126.5L413.9,125.4L417.8,124.2L421.7,123.1L425.7,121.9L429.6,120.6L433.5,119.0L437.5,118.6L441.4,117.9L445.3,117.5L449.3,116.7L453.2,116.5L457.1,115.2L461.1,114.6L465.0,114.0L468.9,113.0L472.9,112.1L476.8,111.3L480.7,109.4L484.7,108.2L488.6,107.6L492.5,106.7L496.4,106.5L500.4,105.9L504.3,104.9L508.2,104.2L512.2,104.0L516.1,103.4L520.0,102.8L524.0,101.1L527.9,98.2L531.8,97.0L535.8,93.4L539.7,91.3L543.6,90.3L547.6,89.5L551.5,88.2L555.4,87.4L559.4,86.4L563.3,84.7L567.2,83.0L571.2,81.6L575.1,81.2L579.0,80.5L583.0,80.1L586.9,79.3L590.8,78.7L594.8,77.6L598.7,77.2L602.6,76.6L610.5,76.2L614.4,76.0L618.4,74.5L622.3,74.3L626.2,73.5L630.2,72.0L638.0,71.8L642.0,71.0L645.9,69.7L649.8,68.1L653.8,67.4L657.7,66.6L661.6,66.0L665.6,64.7L669.5,64.3L673.4,64.1L677.3,63.7L681.3,62.9L685.2,61.8L689.1,61.0L693.1,60.8L697.0,60.6L700.9,59.1L704.9,57.9L708.8,57.5L712.7,56.8L716.7,56.2L720.6,56.0L724.5,55.2L728.5,54.3L732.4,54.1L736.3,53.7L740.3,53.5L744.2,52.5L752.1,52.3L756.0,52.3" fill="none" stroke="#3b82f6" stroke-width="2.2" stroke-linejoin="round" stroke-linecap="round"/>

  <!-- 数据点 -->
  <circle cx="56.0" cy="235.8" r="2.5" fill="#3b82f6"/>
  <circle cx="150.4" cy="190.9" r="2.5" fill="#3b82f6"/>
  <circle cx="240.8" cy="173.0" r="2.5" fill="#3b82f6"/>
  <circle cx="327.3" cy="150.2" r="2.5" fill="#3b82f6"/>
  <circle cx="413.9" cy="125.4" r="2.5" fill="#3b82f6"/>
  <circle cx="500.4" cy="105.9" r="2.5" fill="#3b82f6"/>
  <circle cx="586.9" cy="79.3" r="2.5" fill="#3b82f6"/>
  <circle cx="681.3" cy="62.9" r="2.5" fill="#3b82f6"/>
  <circle cx="756.0" cy="52.3" r="2.5" fill="#3b82f6"/>

  <!-- 最新数据点（大） -->
  <circle cx="756.0" cy="52.3" r="4" fill="#3b82f6" stroke="#ffffff" stroke-width="2"/>

  <!-- X 轴标签 -->
  <text x="56.0" y="266" text-anchor="middle" fill="#94a3b8" class="axis">2026-01</text>
  <text x="174.0" y="266" text-anchor="middle" fill="#94a3b8" class="axis">2026-02</text>
  <text x="288.0" y="266" text-anchor="middle" fill="#94a3b8" class="axis">2026-03</text>
  <text x="398.1" y="266" text-anchor="middle" fill="#94a3b8" class="axis">2026-04</text>
  <text x="508.2" y="266" text-anchor="middle" fill="#94a3b8" class="axis">2026-05</text>
  <text x="622.3" y="266" text-anchor="middle" fill="#94a3b8" class="axis">2026-06</text>
  <text x="736.3" y="266" text-anchor="middle" fill="#94a3b8" class="axis">2026-07</text>
  <text x="756.0" y="266" text-anchor="middle" fill="#94a3b8" class="axis">2026-07</text>

  <!-- 标题 -->
  <text x="56" y="16" fill="#1e293b" class="title">Star History</text>

  <!-- 最新计数徽章 -->
  <rect x="728.0" y="20.3" width="56" height="22" rx="11" fill="#eff6ff" stroke="#3b82f6" stroke-width="1.2"/>
  <text x="756.0" y="35.3" text-anchor="middle" fill="#3b82f6" class="badge">★ 884</text>
</svg>